<?xml version="1.0" encoding="UTF-8" standalone="no"?>
<!-- Created with Inkscape (http://www.inkscape.org/) -->

<svg
   xmlns:dc="http://purl.org/dc/elements/1.1/"
   xmlns:cc="http://creativecommons.org/ns#"
   xmlns:rdf="http://www.w3.org/1999/02/22-rdf-syntax-ns#"
   xmlns:svg="http://www.w3.org/2000/svg"
   xmlns="http://www.w3.org/2000/svg"
   xmlns:sodipodi="http://sodipodi.sourceforge.net/DTD/sodipodi-0.dtd"
   xmlns:inkscape="http://www.inkscape.org/namespaces/inkscape"
   width="180.26944mm"
   height="180.26944mm"
   viewBox="0 0 180.26944 180.26944"
   version="1.1"
   id="svg8"
   inkscape:version="0.92.3 (2405546, 2018-03-11)"
   sodipodi:docname="ic_launcher.svg">
  <defs
     id="defs2" />
  <sodipodi:namedview
     id="base"
     pagecolor="#ffffff"
     bordercolor="#666666"
     borderopacity="1.0"
     inkscape:pageopacity="0.0"
     inkscape:pageshadow="2"
     inkscape:zoom="0.98994949"
     inkscape:cx="125.97011"
     inkscape:cy="288.61502"
     inkscape:document-units="mm"
     inkscape:current-layer="layer2"
     showgrid="false"
     fit-margin-top="0"
     fit-margin-left="0"
     fit-margin-right="0"
     fit-margin-bottom="0"
     inkscape:window-width="1280"
     inkscape:window-height="973"
     inkscape:window-x="0"
     inkscape:window-y="25"
     inkscape:window-maximized="1" />
  <metadata
     id="metadata5">
    <rdf:RDF>
      <cc:Work
         rdf:about="">
        <dc:format>image/svg+xml</dc:format>
        <dc:type
           rdf:resource="http://purl.org/dc/dcmitype/StillImage" />
        <dc:title />
      </cc:Work>
    </rdf:RDF>
  </metadata>
  <g
     inkscape:groupmode="layer"
     id="layer2"
     inkscape:label="Layer 2">
    <rect
       style="fill:#4d4d4d;fill-opacity:1;stroke-width:0.33500668"
       id="rect3895"
       width="180.40692"
       height="180.67418"
       x="0.26727018"
       y="-0.13749249"
       ry="0" />
    <path
       style="fill:#ffffff;fill-opacity:1;stroke-width:0.99999994"
       d="M 341.07227 272.76172 A 67.857142 67.857142 0 0 0 273.21484 340.61914 A 67.857142 67.857142 0 0 0 341.07227 408.47656 A 67.857142 67.857142 0 0 0 408.92773 340.61914 A 67.857142 67.857142 0 0 0 341.07227 272.76172 z M 341.60742 298.83398 A 41.964288 41.964288 0 0 1 383.57227 340.79688 A 41.964288 41.964288 0 0 1 341.60742 382.76172 A 41.964288 41.964288 0 0 1 299.64258 340.79688 A 41.964288 41.964288 0 0 1 341.60742 298.83398 z "
       transform="scale(0.26458333)"
       id="path92" />
    <rect
       style="fill:#ffffff;fill-opacity:1;stroke-width:0.26060906"
       id="rect100"
       width="15.3"
       height="6.5"
       x="116.5"
       y="87.26944"
       ry="1.1149637" />
    <rect
       style="fill:#ffffff;fill-opacity:1;stroke-width:0.26060903"
       id="rect100-3"
       width="15.3"
       height="6.5"
       x="48.754002"
       y="87.26944"
       ry="1.1149635" />
    <rect
       style="fill:#ffffff;fill-opacity:1;stroke-width:0.26060903"
       id="rect100-3-6"
       width="15.300001"
       height="6.5"
       x="48.832237"
       y="-93.775299"
       ry="1.1149635"
       transform="rotate(90)" />
    <rect
       style="fill:#ffffff;fill-opacity:1;stroke-width:0.26060903"
       id="rect100-3-6-7"
       width="15.300002"
       height="6.5"
       x="116.39548"
       y="-93.775299"
       ry="1.1149635"
       transform="rotate(90)" />
    <rect
       style="fill:#ffffff;fill-opacity:1;stroke-width:0.26060903"
       id="rect100-3-6-5"
       width="15.300002"
       height="6.5"
       x="154.03024"
       y="-3.2678146"
       ry="1.1149635"
       transform="rotate(45)" />
    <rect
       style="fill:#ffffff;fill-opacity:1;stroke-width:0.26060903"
       id="rect100-3-6-5-3"
       width="15.300002"
       height="6.5"
       x="85.943321"
       y="-3.3346391"
       ry="1.1149635"
       transform="rotate(45)" />
    <rect
       style="fill:#ffffff;fill-opacity:1;stroke-width:0.26060903"
       id="rect100-3-6-5-5"
       width="15.300002"
       height="6.5"
       x="26.208591"
       y="-131.05383"
       ry="1.1149635"
       transform="rotate(135)" />
    <rect
       style="fill:#ffffff;fill-opacity:1;stroke-width:0.26060903"
       id="rect100-3-6-5-5-6"
       width="15.300002"
       height="6.5"
       x="-41.878323"
       y="-130.98701"
       ry="1.1149635"
       transform="rotate(135)" />
  </g>
</svg>
